<svg width="18" height="18" viewBox="0 0 18 18" fill="none" xmlns="http://www.w3.org/2000/svg">
<path opacity="0.8" d="M9 0C4.02942 0 0 4.02942 0 9C0 13.9706 4.02942 18 9 18C13.9706 18 18 13.9706 18 9C18 4.02942 13.9706 0 9 0ZM9 1.74194C13.0085 1.74194 16.2581 4.99148 16.2581 9C16.2581 10.3421 15.8934 11.5988 15.2583 12.6772C15.0017 11.7539 14.327 10.71 12.9383 10.3048C13.3986 9.57273 13.6452 8.7247 13.6452 7.83871C13.6452 5.27338 11.5698 3.19355 9 3.19355C6.43467 3.19355 4.35484 5.26899 4.35484 7.83871C4.35484 8.7247 4.60136 9.57277 5.0617 10.3048C3.67182 10.7103 2.99765 11.7532 2.74137 12.6768C2.10651 11.5984 1.74194 10.3419 1.74194 9C1.74194 4.99148 4.99148 1.74194 9 1.74194ZM11.9032 7.83871C11.9032 9.44213 10.6034 10.7419 9 10.7419C7.39658 10.7419 6.09677 9.44213 6.09677 7.83871C6.09677 6.23529 7.39658 4.93548 9 4.93548C10.6034 4.93548 11.9032 6.23529 11.9032 7.83871ZM4.35484 14.5767V13.5694C4.35484 12.8287 4.84585 12.1777 5.55808 11.9742L6.44632 11.7204C7.1979 12.2171 8.07841 12.4839 9 12.4839C9.92159 12.4839 10.8021 12.2171 11.5537 11.7204L12.442 11.9742C13.1542 12.1777 13.6452 12.8286 13.6452 13.5694V14.5767C12.3864 15.6263 10.7671 16.2581 9 16.2581C7.23292 16.2581 5.61357 15.6263 4.35484 14.5767Z" fill="white"/>
</svg>
