<svg width="25" height="27" viewBox="0 0 25 27" fill="none" xmlns="http://www.w3.org/2000/svg">
<path d="M21.0234 1.5625H20.3125V0.78125C20.3125 0.349219 19.9633 0 19.5312 0C19.0992 0 18.75 0.349219 18.75 0.78125V1.5625H13.2812V0.78125C13.2812 0.349219 12.932 0 12.5 0C12.068 0 11.7187 0.349219 11.7187 0.78125V1.5625H6.25V0.78125C6.25 0.349219 5.90078 0 5.46875 0C5.03672 0 4.6875 0.349219 4.6875 0.78125V1.5625H3.97656C1.78359 1.5625 0 3.34609 0 5.53906V22.5859C0 24.7789 1.78359 26.5625 3.97656 26.5625H21.0234C23.2164 26.5625 25 24.7789 25 22.5859V5.53906C25 3.34609 23.2164 1.5625 21.0234 1.5625ZM23.4375 22.5859C23.4375 23.9172 22.3539 25 21.0234 25H3.97656C2.64531 25 1.5625 23.9172 1.5625 22.5859V9.375H23.4375V22.5859ZM23.4375 7.8125H1.5625V5.53906C1.5625 4.20781 2.64531 3.125 3.97656 3.125H4.6875V5.46875C4.6875 5.90078 5.03672 6.25 5.46875 6.25C5.90078 6.25 6.25 5.90078 6.25 5.46875V3.125H11.7187V5.46875C11.7187 5.90078 12.068 6.25 12.5 6.25C12.932 6.25 13.2812 5.90078 13.2812 5.46875V3.125H18.75V5.46875C18.75 5.90078 19.0992 6.25 19.5312 6.25C19.9633 6.25 20.3125 5.90078 20.3125 5.46875V3.125H21.0234C22.3539 3.125 23.4375 4.20781 23.4375 5.53906V7.8125Z" fill="white"/>
</svg>
