<svg width="21" height="23" viewBox="0 0 21 23" fill="none" xmlns="http://www.w3.org/2000/svg">
<path d="M3.92688 12.6461C3.21976 11.7975 1.95863 11.6829 1.11007 12.39C0.261519 13.0971 0.146871 14.3582 0.853999 15.2068L3.92688 12.6461ZM8.2441 20.9508L6.70766 22.2312C7.1287 22.7364 7.77124 23.0024 8.4262 22.9425C9.08115 22.8826 9.66481 22.5046 9.98725 21.9313L8.2441 20.9508ZM20.5238 3.19964C21.0654 2.23692 20.7239 1.01749 19.7612 0.475965C18.7985 -0.0655625 17.5791 0.275878 17.0375 1.23859L20.5238 3.19964ZM0.853999 15.2068L6.70766 22.2312L9.78054 19.6705L3.92688 12.6461L0.853999 15.2068ZM9.98725 21.9313L20.5238 3.19964L17.0375 1.23859L6.50095 19.9703L9.98725 21.9313Z" fill="white"/>
</svg>
