<?xml version="1.0" encoding="utf-8"?>
<!-- Generator: Adobe Illustrator 22.0.0, SVG Export Plug-In . SVG Version: 6.00 Build 0)  -->
<svg version="1.1" id="Layer_1" xmlns="http://www.w3.org/2000/svg" xmlns:xlink="http://www.w3.org/1999/xlink" x="0px" y="0px"
	 viewBox="0 0 81.5 81.4" style="enable-background:new 0 0 81.5 81.4;" xml:space="preserve">
<g>
	<path d="M40.8,80.5c22.1,0,40-17.9,40-40c0-22.1-17.9-40-40-40c-22.1,0-40,17.9-40,40C0.8,62.6,18.7,80.5,40.8,80.5z M40.8,8.5
		c17.6,0,32,14.4,32,32c0,17.6-14.4,32-32,32s-32-14.4-32-32S23.1,8.5,40.8,8.5z"/>
	<path d="M36.8,41.3c0,0.1,0.1,0.2,0.1,0.3c0,0.1,0.1,0.3,0.1,0.4c0.1,0.1,0.1,0.2,0.2,0.4c0.1,0.1,0.1,0.2,0.2,0.3
		c0.1,0.2,0.3,0.4,0.5,0.6c0,0,0,0,0,0.1l16,16c1.6,1.6,4.1,1.6,5.7,0c1.6-1.6,1.6-4.1,0-5.7L44.8,38.9V22.8c0-2.2-1.8-4-4-4
		s-4,1.8-4,4v17.7C36.8,40.8,36.8,41.1,36.8,41.3z"/>
</g>
</svg>
