<svg width="23" height="23" viewBox="0 0 23 23" fill="none" xmlns="http://www.w3.org/2000/svg">
<path d="M20.3822 14.1125C20.0933 14.1125 19.8592 14.3466 19.8592 14.6355V19.2792C19.8581 20.1455 19.1564 20.8474 18.2901 20.8483H3.61504C2.74881 20.8474 2.04704 20.1455 2.04602 19.2792V5.65014C2.04704 4.78411 2.74881 4.08213 3.61504 4.08111H8.25879C8.54767 4.08111 8.7818 3.84698 8.7818 3.5581C8.7818 3.26943 8.54767 3.0351 8.25879 3.0351H3.61504C2.17146 3.03673 1.00163 4.20655 1 5.65014V19.2794C1.00163 20.723 2.17146 21.8928 3.61504 21.8945H18.2901C19.7337 21.8928 20.9035 20.723 20.9052 19.2794V14.6355C20.9052 14.3466 20.6711 14.1125 20.3822 14.1125Z" fill="black" stroke="black" stroke-width="0.5"/>
<path d="M20.6981 1.68936C19.7789 0.770213 18.2887 0.770213 17.3696 1.68936L8.03879 11.0202C7.97484 11.0841 7.92867 11.1634 7.90456 11.2504L6.67753 15.6803C6.62707 15.8619 6.67835 16.0564 6.81155 16.1898C6.94496 16.323 7.13946 16.3743 7.32108 16.324L11.7509 15.0968C11.838 15.0727 11.9172 15.0265 11.9812 14.9625L21.3118 5.63154C22.2295 4.71178 22.2295 3.22284 21.3118 2.30308L20.6981 1.68936ZM9.17837 11.3601L16.8149 3.72337L19.2778 6.18621L11.641 13.823L9.17837 11.3601ZM8.68642 12.3473L10.654 14.3151L7.93235 15.0692L8.68642 12.3473ZM20.5722 4.89197L20.0175 5.44665L17.5545 2.9836L18.1094 2.42893C18.6199 1.91838 19.4477 1.91838 19.9583 2.42893L20.5722 3.04265C21.0819 3.5538 21.0819 4.38102 20.5722 4.89197Z" fill="black" stroke="black" stroke-width="0.5"/>
</svg>
