<?xml version="1.0" encoding="utf-8"?>
<!-- Generator: Adobe Illustrator 22.0.0, SVG Export Plug-In . SVG Version: 6.00 Build 0)  -->
<svg version="1.1" id="Layer_1" xmlns="http://www.w3.org/2000/svg" xmlns:xlink="http://www.w3.org/1999/xlink" x="0px" y="0px"
	 viewBox="0 0 23 23" style="enable-background:new 0 0 23 23;" xml:space="preserve">
<style type="text/css">
	.st0{fill:#FFFFFF;stroke:#FFFFFF;stroke-width:0.5;}
</style>
<path class="st0" d="M20.4,14.1c-0.3,0-0.5,0.2-0.5,0.5v4.6c0,0.9-0.7,1.6-1.6,1.6H3.6c-0.9,0-1.6-0.7-1.6-1.6V5.7
	c0-0.9,0.7-1.6,1.6-1.6h4.6c0.3,0,0.5-0.2,0.5-0.5C8.8,3.3,8.5,3,8.3,3H3.6C2.2,3,1,4.2,1,5.7v13.6c0,1.4,1.2,2.6,2.6,2.6h14.7
	c1.4,0,2.6-1.2,2.6-2.6v-4.6C20.9,14.3,20.7,14.1,20.4,14.1z"/>
<path class="st0" d="M20.7,1.7c-0.9-0.9-2.4-0.9-3.3,0L8,11c-0.1,0.1-0.1,0.1-0.1,0.2l-1.2,4.4c-0.1,0.2,0,0.4,0.1,0.5
	c0.1,0.1,0.3,0.2,0.5,0.1l4.4-1.2c0.1,0,0.2-0.1,0.2-0.1l9.3-9.3c0.9-0.9,0.9-2.4,0-3.3L20.7,1.7z M9.2,11.4l7.6-7.6l2.5,2.5
	l-7.6,7.6L9.2,11.4z M8.7,12.3l2,2l-2.7,0.8L8.7,12.3z M20.6,4.9L20,5.4L17.6,3l0.6-0.6c0.5-0.5,1.3-0.5,1.8,0L20.6,3
	C21.1,3.6,21.1,4.4,20.6,4.9z"/>
</svg>
