<svg width="28" height="28" viewBox="0 0 28 28" fill="none" xmlns="http://www.w3.org/2000/svg">
<g clip-path="url(#clip0)">
<path d="M24.1456 7.36209L27.7593 3.75272C27.9942 3.51817 28.0645 3.16527 27.9376 2.85864C27.8107 2.55195 27.5115 2.35196 27.1796 2.35196H25.539V0.820712C25.539 0.486517 25.3363 0.185736 25.0265 0.0603382C24.7166 -0.06506 24.3619 0.00997115 24.1294 0.250049L20.6294 3.86434C20.4813 4.01735 20.3984 4.22199 20.3984 4.435V6.33511C18.165 4.40197 15.3317 3.34694 12.3266 3.34694C5.48389 3.347 0 8.82875 0 15.6737C0 22.5165 5.4817 28.0003 12.3266 28.0003C19.1694 28.0003 24.6534 22.5186 24.6534 15.6737C24.6534 12.6686 23.5983 9.83544 21.6652 7.60195H23.5658C23.7833 7.60195 23.9918 7.51571 24.1456 7.36209ZM19.8947 23.2417C17.8839 25.2524 15.1962 26.3597 12.3266 26.3597C6.39066 26.3597 1.64062 21.6118 1.64062 15.6737C1.64062 9.65765 6.48757 4.97597 12.3266 4.97597C14.8112 4.97597 17.2957 5.8333 19.2928 7.54792L18.1282 8.71254C16.5097 7.36242 14.4791 6.62687 12.3266 6.62687C7.29891 6.62687 3.27988 10.6443 3.27988 15.6736C3.27988 20.7012 7.29716 24.7204 12.3266 24.7204C17.3544 24.7204 21.3734 20.703 21.3734 15.6736C21.3734 13.5215 20.6381 11.491 19.2882 9.87268L20.4529 8.708C24.0585 12.9083 23.8724 19.2639 19.8947 23.2417ZM12.354 13.1862C10.9928 13.1862 9.89399 14.2849 9.89399 15.6463C9.89399 17.0076 10.9926 18.1063 12.354 18.1063C13.7153 18.1063 14.814 17.0077 14.814 15.6463C14.814 15.2729 14.7315 14.9124 14.5753 14.5855L15.7756 13.3853C16.2164 14.0537 16.4534 14.8428 16.4534 15.6737C16.4534 19.4519 11.905 21.107 9.39907 18.6013C6.89914 16.1014 8.53796 11.547 12.3266 11.547C13.1578 11.547 13.9472 11.7841 14.6156 12.2251L13.4155 13.4253C13.0884 13.2689 12.7277 13.1862 12.354 13.1862ZM13.1735 15.6464C13.1735 16.1009 12.8086 16.4657 12.354 16.4657C12.1344 16.4657 11.9284 16.3808 11.774 16.2264C11.6196 16.072 11.5347 15.866 11.5347 15.6464C11.5347 15.1919 11.8995 14.8269 12.354 14.8269C12.8085 14.8269 13.1735 15.1917 13.1735 15.6464ZM15.793 11.0478C14.8035 10.3072 13.5992 9.90637 12.3266 9.90637C9.11486 9.90637 6.55937 12.4602 6.55937 15.6736C6.55937 18.8854 9.11327 21.4409 12.3266 21.4409C15.5384 21.4409 18.0939 18.8871 18.0939 15.6736C18.0939 14.4014 17.6933 13.1972 16.953 12.2079L18.1223 11.0386C19.1657 12.3432 19.7328 13.9607 19.7328 15.6736C19.7328 19.7944 16.4493 23.0797 12.3266 23.0797C8.20562 23.0797 4.9205 19.7961 4.9205 15.6736C4.9205 11.5518 8.20502 8.26744 12.3266 8.26744C14.0398 8.26744 15.6575 8.83466 16.9622 9.87842L15.793 11.0478ZM22.039 5.96133V4.76712L23.8984 2.84704V3.17227C23.8984 3.6253 24.2657 3.99258 24.7187 3.99258H25.1975L23.2264 5.96133H22.039Z" fill="white"/>
</g>
<defs>
<clipPath id="clip0">
<rect width="28" height="28" fill="white"/>
</clipPath>
</defs>
</svg>
