<svg width="25" height="24" viewBox="0 0 25 24" fill="none" xmlns="http://www.w3.org/2000/svg">
<path d="M24.9657 9.02052C24.8836 8.7691 24.6681 8.58951 24.4064 8.54846L16.6071 7.44013L13.0974 0.384834C12.9794 0.148803 12.7382 0 12.4765 0C12.2148 0 11.9737 0.148803 11.8557 0.389966L8.39216 7.46579L0.592847 8.62542C0.33116 8.66647 0.115652 8.84606 0.0335542 9.09749C-0.0485438 9.34891 0.023292 9.62599 0.213144 9.80558L5.87278 15.2908L4.56434 23.0593C4.51816 23.321 4.62591 23.5827 4.84142 23.7366C4.95944 23.8238 5.10311 23.87 5.24678 23.87C5.35966 23.87 5.46742 23.8443 5.57004 23.7879L12.533 20.0986L19.5164 23.7469C19.6191 23.7982 19.7268 23.8238 19.8346 23.8238C20.2143 23.8238 20.5273 23.5108 20.5273 23.1311C20.5273 23.0747 20.5221 23.0234 20.5067 22.9721L19.1573 15.2497L24.781 9.73375C24.9811 9.54903 25.0478 9.27195 24.9657 9.02052ZM17.9361 14.516C17.7719 14.675 17.7 14.9059 17.7411 15.1317L18.9161 21.8689L12.8511 18.703C12.651 18.5952 12.4098 18.6003 12.2046 18.703L6.16012 21.9048L7.2941 15.1573C7.33002 14.9316 7.25818 14.7058 7.09398 14.5467L2.18863 9.78506L8.95658 8.77936C9.18235 8.74344 9.37734 8.6049 9.47483 8.39965L12.4817 2.2577L15.5296 8.38426C15.6322 8.58951 15.8272 8.72805 16.0529 8.76396L22.826 9.72862L17.9361 14.516Z" fill="white"/>
</svg>
