<svg height="512pt" viewBox="-91 0 512 512" width="512pt" xmlns="http://www.w3.org/2000/svg"><path d="m303.039062 157.121094v-46.328125c15.160157-4.308594 26.300782-18.351563 26.300782-34.96875v-39.496094c0-20.03125-16.195313-36.328125-36.101563-36.328125h-257.128906c-19.910156 0-36.109375 16.296875-36.109375 36.328125v39.496094c0 16.613281 11.140625 30.65625 26.300781 34.964843v46.332032c0 37.886718 15.769531 73.609375 42.949219 98.878906-27.183594 25.269531-42.949219 60.996094-42.949219 98.890625v46.328125c-15.160156 4.308594-26.300781 18.347656-26.300781 34.957031v39.5c0 20.027344 16.199219 36.324219 36.109375 36.324219h257.128906c19.90625 0 36.101563-16.296875 36.101563-36.324219v-39.5c0-16.609375-11.140625-30.652343-26.300782-34.957031v-46.328125c0-37.894531-15.765624-73.621094-42.949218-98.890625 27.179687-25.269531 42.949218-60.992188 42.949218-98.878906zm-273.039062-120.792969c0-3.488281 2.742188-6.328125 6.109375-6.328125h257.128906c3.367188 0 6.101563 2.839844 6.101563 6.328125v39.496094c0 3.492187-2.734375 6.328125-6.101563 6.328125h-257.128906c-3.367187 0-6.109375-2.835938-6.109375-6.328125zm269.339844 439.347656c0 3.484375-2.734375 6.324219-6.101563 6.324219h-257.128906c-3.367187 0-6.109375-2.839844-6.109375-6.324219v-39.5c0-3.484375 2.742188-6.316406 6.109375-6.316406h257.128906c3.367188 0 6.101563 2.832031 6.101563 6.316406zm-71.671875-207.304687c28.410156 19.484375 45.371093 51.828125 45.371093 86.519531v44.96875h-216.738281v-44.96875c0-34.691406 16.960938-67.035156 45.375-86.519531 4.078125-2.796875 6.515625-7.425782 6.515625-12.371094s-2.4375-9.574219-6.515625-12.371094c-28.414062-19.480468-45.375-51.820312-45.375-86.507812v-44.96875h216.738281v44.96875c0 34.6875-16.960937 67.023437-45.375 86.507812-4.078124 2.796875-6.515624 7.425782-6.515624 12.371094s2.441406 9.574219 6.519531 12.371094zm0 0"/></svg>