<svg width="16" height="18" viewBox="0 0 16 18" fill="none" xmlns="http://www.w3.org/2000/svg">
<path opacity="0.8" d="M14.8431 11.6346C14.2504 11.0445 13.6378 10.4342 13.6378 7.55353C13.6378 4.63465 11.5108 2.20718 8.7366 1.76112C8.86438 1.574 8.93265 1.35214 8.93234 1.125C8.93234 0.503684 8.43244 0 7.8158 0C7.19915 0 6.69926 0.503684 6.69926 1.125C6.69894 1.35214 6.7672 1.57401 6.89496 1.76115C4.12078 2.20721 1.99384 4.63468 1.99384 7.55357C1.99384 10.434 1.38145 11.0443 0.788565 11.6344C-0.889597 13.3046 0.339366 15.75 2.33494 15.75H5.58271C5.58271 16.9926 6.58251 18 7.8158 18C9.04909 18 10.0489 16.9926 10.0489 15.75H13.2966C15.2921 15.75 16.5212 13.3037 14.8431 11.6346ZM7.8158 16.5938C7.35404 16.5938 6.97839 16.2153 6.97839 15.75H8.6532C8.6532 16.2153 8.27756 16.5938 7.8158 16.5938ZM13.297 14.0625H2.33428C1.74942 14.0625 1.45727 13.3457 1.86903 12.9308C2.86641 11.9258 3.66865 10.9717 3.66865 7.55357C3.66865 5.2495 5.52905 3.375 7.8158 3.375C10.1025 3.375 11.9629 5.2495 11.9629 7.55357C11.9629 10.9866 12.7732 11.9331 13.7623 12.9308C14.1758 13.3475 13.8794 14.0625 13.297 14.0625Z" fill="white"/>
</svg>
