<svg width="21" height="21" viewBox="0 0 21 21" fill="none" xmlns="http://www.w3.org/2000/svg">
<path d="M20.0047 8.27784C19.9421 8.08613 19.7777 7.9492 19.5782 7.9179L13.6315 7.07285L10.9555 1.69345C10.8655 1.51348 10.6817 1.40002 10.4821 1.40002C10.2826 1.40002 10.0987 1.51348 10.0087 1.69736L7.36795 7.09241L1.42126 7.97659C1.22174 8.00789 1.05742 8.14482 0.994822 8.33652C0.932225 8.52822 0.986998 8.73949 1.13175 8.87642L5.44701 13.0587L4.44938 18.9819C4.41417 19.1814 4.49632 19.3809 4.66064 19.4983C4.75062 19.5648 4.86017 19.6 4.96971 19.6C5.05578 19.6 5.13794 19.5805 5.21619 19.5374L10.5252 16.7245L15.8498 19.5061C15.928 19.5452 16.0102 19.5648 16.0924 19.5648C16.3819 19.5648 16.6205 19.3262 16.6205 19.0366C16.6205 18.9936 16.6166 18.9545 16.6049 18.9154L15.5759 13.0274L19.8638 8.82165C20.0164 8.6808 20.0673 8.46954 20.0047 8.27784Z" fill="black"/>
<path d="M14.4961 12.9374L15.3921 18.0742L10.7677 15.6603C10.6152 15.5782 10.4313 15.5821 10.2748 15.6603L5.6661 18.1016L6.53072 12.9569C6.5581 12.7848 6.50333 12.6127 6.37814 12.4914L2.63799 8.86077L7.7983 8.09396C7.97044 8.06657 8.11911 7.96094 8.19344 7.80445L10.486 3.12143L12.8099 7.79271C12.8882 7.9492 13.0369 8.05484 13.209 8.08222M20.0047 8.27784C19.9421 8.08613 19.7777 7.9492 19.5782 7.9179L13.6315 7.07285L10.9555 1.69345C10.8655 1.51348 10.6817 1.40002 10.4821 1.40002C10.2826 1.40002 10.0987 1.51348 10.0087 1.69736L7.36795 7.09241L1.42126 7.97659C1.22174 8.00789 1.05742 8.14482 0.994822 8.33652C0.932225 8.52822 0.986998 8.73949 1.13175 8.87642L5.44701 13.0587L4.44938 18.9819C4.41417 19.1814 4.49632 19.3809 4.66064 19.4983C4.75062 19.5648 4.86017 19.6 4.96971 19.6C5.05578 19.6 5.13794 19.5805 5.21619 19.5374L10.5252 16.7245L15.8498 19.5061C15.928 19.5452 16.0102 19.5648 16.0924 19.5648C16.3819 19.5648 16.6205 19.3262 16.6205 19.0366C16.6205 18.9936 16.6166 18.9545 16.6049 18.9154L15.5759 13.0274L19.8638 8.82165C20.0164 8.6808 20.0673 8.46954 20.0047 8.27784Z" stroke="black" stroke-width="0.5"/>
</svg>
