<svg width="47" height="44" viewBox="0 0 47 44" fill="none" xmlns="http://www.w3.org/2000/svg">
<path d="M46.0197 16.6277C45.8684 16.1642 45.4711 15.8332 44.9888 15.7575L30.6122 13.7145L24.1427 0.709372C23.9251 0.274291 23.4806 0 22.9982 0C22.5159 0 22.0713 0.274291 21.8538 0.718831L15.4694 13.7618L1.09281 15.8994C0.610432 15.9751 0.213184 16.3061 0.0618511 16.7696C-0.0894816 17.233 0.0429345 17.7438 0.392892 18.0748L10.8254 28.1857L8.41353 42.5056C8.3284 42.988 8.52703 43.4703 8.92428 43.7541C9.14182 43.9149 9.40665 44 9.67148 44C9.87956 44 10.0782 43.9527 10.2674 43.8487L23.1023 37.0482L35.975 43.773C36.1642 43.8676 36.3628 43.9149 36.5614 43.9149C37.2613 43.9149 37.8383 43.3379 37.8383 42.638C37.8383 42.534 37.8288 42.4394 37.8005 42.3448L35.3129 28.1101L45.6792 17.9424C46.0481 17.6019 46.1711 17.0911 46.0197 16.6277ZM33.0619 26.7575C32.7592 27.0507 32.6268 27.4764 32.7024 27.8925L34.8684 40.3113L23.6887 34.4755C23.3198 34.2769 22.8753 34.2863 22.4969 34.4755L11.3551 40.3775L13.4453 27.9398C13.5116 27.5236 13.3791 27.1075 13.0765 26.8143L4.03434 18.037L16.5098 16.1831C16.926 16.1169 17.2854 15.8616 17.4651 15.4832L23.0077 4.16165L28.6259 15.4549C28.8151 15.8332 29.1745 16.0886 29.5907 16.1548L42.0756 17.9329L33.0619 26.7575Z" fill="black"/>
</svg>
